<svg xmlns="http://www.w3.org/2000/svg"  viewBox="0 0 48 48" width="48px" height="48px"><polygon fill="#3b2b28" points="38,32 37,42 35.5,40 35,46 34,44 33,47 31,41"/><polygon fill="#313131" points="40,22 44,33.75 37,30"/><path fill="#ffbca7" d="M36,25h3.012C40.11,25,41,25.89,41,26.988v3.199c0,0.541-0.109,1.076-0.322,1.573 c-0.466,1.086-1.808,3.618-2.396,4.717C38.107,36.802,37.771,37,37.402,37h0.012c-0.265,0-0.52-0.105-0.707-0.293L36,36V25z"/><path fill="#ffad93" d="M37.875,34c0,0,1.125,0,1.125-2c0-3.5,1-4,1-4s-3-0.375-3,4C37,34,37.875,34,37.875,34z"/><polygon fill="#313131" points="8.988,25 11.715,31.667 4.977,36"/><polygon fill="#313131" points="9.965,32.792 11,43 12,41 13,46 14,44 15,47 17,41"/><path fill="#ffbca7" d="M12,25H8.988C7.89,25,7,25.89,7,26.988v3.199c0,0.541,0.109,1.076,0.322,1.573 c0.466,1.086,1.808,3.618,2.396,4.717C9.893,36.802,10.229,37,10.598,37h-0.012c0.265,0,0.52-0.105,0.707-0.293L12,36V25z"/><path fill="#ffad93" d="M11.348,33.533c0,0-2.118-2.351-2.118-4.351c0-3.5,1.769-1.849,1.769-1.849s0.715-0.042,0.715,4.333 C11.715,33.667,11.348,33.533,11.348,33.533z"/><path fill="#ffdbd0" d="M24,11c-11.823,0-13,9-13,9s0,6.5,0,9.5c0,2,0.322,5.025,1.322,8.025C12.827,38.34,19,48,22,48 c1.077,0,2.431,0,4,0c3,0,8.627-9.397,9-10c1-2,1.143-3,2-5c1.182-2.757,0-13,0-13S35.823,11,24,11z"/><path fill="#ffbca7" d="M22,35h4c0,0-1,2-2,2S22,35,22,35z"/><rect width="6" height="2" x="21" y="40" fill="#ffbca7"/><path fill="#aa2c2c" d="M31,17c-0.184-0.033-1.11,1.935-1.875,3c-0.25,1,1.375,0,1.375,0L31,17z"/><path fill="#aa2c2c" d="M30.049,22c0,0,0.638-2,1.513-2c1.312,0,1.985,0,1.985,0v1h-1.749L30.049,22z"/><path fill="#aa2c2c" d="M33.548,20c0,0-2.4,0.511-3.498-1.496c0.852,0.489,3.287,0.777,3.287,0.777L33.548,20z"/><path fill="#f5e9e8" d="M35,27.333c-0.027,0.24-0.062,0.46-0.107,0.667c-0.24,1.073-0.809,1.753-2.276,1.993L32.556,30H27 c0,0,0-0.753,0.853-1.693c0.542-0.607,1.52-0.973,2.578-0.973H35z"/><ellipse cx="31.5" cy="28.667" fill="#00b8d4" rx="1.5" ry="1.333"/><path fill="#212121" d="M30.184,30.38c-2.027,0-2.834-0.221-2.875-0.232l-0.514-0.146l0.179-0.503 c0.03-0.083,0.748-2.047,2.587-2.376c1.577-0.282,5.239-0.607,5.395-0.621l0.512-0.045l0.031,0.513 c0.003,0.05,0.066,1.245-0.795,2.208c-0.63,0.705-1.567,1.093-2.785,1.156C31.261,30.366,30.685,30.38,30.184,30.38z M28.193,29.284c0.637,0.073,1.804,0.145,3.674,0.05c1.906-0.097,2.438-1.125,2.582-1.781c-1.124,0.106-3.55,0.347-4.713,0.555 C28.973,28.244,28.473,28.832,28.193,29.284z"/><path fill="#f5e9e8" d="M13,27.333c0.027,0.24,0.062,0.46,0.107,0.667c0.24,1.073,0.809,1.753,2.276,1.993L15.444,30H21 c0,0,0-0.753-0.853-1.693c-0.542-0.607-1.52-0.973-2.578-0.973H13z"/><ellipse cx="16.5" cy="28.667" fill="#00b8d4" rx="1.5" ry="1.333"/><path fill="#212121" d="M17.816,30.38c-0.501,0-1.077-0.014-1.734-0.047c-1.218-0.062-2.155-0.451-2.785-1.156 c-0.861-0.963-0.798-2.158-0.795-2.208l0.031-0.513l0.512,0.045c0.155,0.014,3.817,0.339,5.395,0.621 c1.839,0.329,2.557,2.292,2.587,2.376l0.179,0.503l-0.514,0.146C20.651,30.159,19.843,30.38,17.816,30.38z M13.551,27.553 c0.144,0.655,0.676,1.684,2.583,1.781c1.867,0.096,3.034,0.023,3.671-0.05c-0.282-0.453-0.784-1.042-1.54-1.177 C17.102,27.899,14.674,27.659,13.551,27.553z"/><path fill="#aa2c2c" d="M46.394,19.5c0,0-3.766-3.304-5.762-5.648L45,11c0,0-4.475-0.983-7.475-1.983l4.164-5.526 c0,0-5.664,2.199-8.189,1.987L35,0c0,0-4.357,2.545-7.161,3.596C27,2.142,27,2.215,26-0.053L23.292,2.75L19-0.053l-0.11,3.16 C13.89,1.108,13,0,13,0v3.667C8.473,3.119,6.102,2.724,6.102,2.724L9.5,7.931c-3,1-5.756,0.605-5.756,0.605L7.747,11L2,15.592 l5,0.34C4,19.722,1.871,23,1.871,23l5.774-1c-2.111,3.616-3.589,7.623-3.965,7.667l6.793-3.851L12,19.504L12.136,23l3.544-6 l-1.383,6.188L19,16l-1,7l8-8.73c0,0-1,3.433-2,8.433c0,0,6-6.703,7-8.703c1,3,3,11,3,11l1-8l1.667,7L37,26l1.5,0.5L39,26l6,3 c0,0-1.349-5.983-2.677-9.5H46.394z"/><polygon fill="#313131" points="26,14.27 18,23 22,17"/><polygon fill="#313131" points="1.871,23.203 8.083,20.203 7.645,22.203"/><polygon fill="#ffbca7" points="22,28 21,25 17,24 20,26"/><polygon fill="#ffbca7" points="26,28 27,25 30,25 28,26"/><path fill="#aa2c2c" d="M30.049,23.473c0,0,3.148-1.584,3.049-3.028C33.901,19.556,33.548,20,33.548,20L34,20.444 C34,20.444,33.099,23.945,30.049,23.473z"/><polygon fill="#313131" points="35,17 34,25 31,14"/><polygon fill="#313131" points="12,19 3.967,29.375 10.473,25.816 15.68,17"/><polygon fill="#313131" points="36,23.188 34.417,18.143 35,17 37.5,23 39.046,20 45,29 39.5,27.5 38.325,30 37.125,32 37,26"/></svg>