<svg xmlns="http://www.w3.org/2000/svg"  viewBox="0 0 48 48" width="48px" height="48px" baseProfile="basic"><path fill="#f06292" d="M9.01,14.011C11.953,5.02,15.057,2.023,21.693,1.97c1.339-0.011,2.301,1.017,2.301,1.017	s1.173-0.963,2.569-0.963c7.813,0,11.345,8.027,12.362,11.987l4.781,16.318c0.656,2.404-0.069,5.699-1.102,7.589	c-1.017,1.86-3.612,4.094-3.612,4.094c0.04-2.288-0.04-4.455-0.04-5.98l-2.97,6.93l-1.967-2.997H13.986l-2.007,3.05l-3.01-6.984	v5.98c0,0-2.314-1.833-3.278-3.438c-1.39-2.316-2.058-4.821-1.539-7.599L9.01,14.011z"/><path fill="#ffbca7" d="M37,24h2.012C40.11,24,41,24.89,41,25.988l0,0c0,1.59-0.745,4.703-1.211,5.831 c-0.539,1.306-0.848,2.12-1.453,2.651S37,35,37,35V24z"/><path fill="#ffad93" d="M37,30c0-4.375,3-4,3-4s-1,0.5-1,4c0,2-1.125,2-1.125,2S37,32,37,30z"/><path fill="#ffbca7" d="M11,24H8.988C7.89,24,7,24.89,7,25.988l0,0c0,1.59,0.745,4.703,1.211,5.831 c0.539,1.306,0.848,2.12,1.453,2.651S11,35,11,35V24z"/><path fill="#ffad93" d="M10.125,32c0,0-1.125,0-1.125-2c0-3.5-1-4-1-4s3-0.375,3,4C11,32,10.125,32,10.125,32z"/><path fill="#ffdbd0" d="M24,18c-12.732,0-14,6-14,6s0,3,0,6s1,6,3,9c0.543,0.815,5,5.989,11,7 c5.987-1.038,10.457-6.185,11-7c2-3,3-6,3-9s0-6,0-6S36.732,18,24,18z"/><path fill="#f5e9e8" d="M34,29c0,0-1-1-3-1c-3,0-4,3-4,3l1,1h2.912c1.227,0,2.791-0.529,3.088-2V29z"/><circle cx="31" cy="30" r="2" fill="#52bea0"/><circle cx="31" cy="30" r="1" fill="#212121"/><path fill="#212121" d="M27,31c0,0,2.506-4.815,7-2l0,0c0-1.105-1.25-2-2.5-2C27,27,27,31,27,31z"/><path fill="#f5e9e8" d="M14,29c0,0,1-1,3-1c3,0,4,3,4,3l-1,1h-2.912c-1.227,0-2.791-0.529-3.088-2L14,29z"/><circle cx="17" cy="30" r="2" fill="#52bea0"/><circle cx="17" cy="30" r="1" fill="#212121"/><path fill="#212121" d="M21,31c0,0-2.679-4.868-7-2l0,0c0-1.105,1.25-2,2.5-2C21,27,21,31,21,31z"/><g><path fill="#ffbca7" d="M22,39h4c0.552,0,1,0.448,1,1l0,0c0,0.552-0.448,1-1,1h-4c-0.552,0-1-0.448-1-1l0,0 C21,39.448,21.448,39,22,39z"/><path fill="#ffbca7" d="M22,35h4c0,0-1,2-2,2S22,35,22,35z"/></g><g><path fill="#6d4c41" d="M33.519,6.037c-3.18-1.59-7.579-1.819-9.579-1.819s-6.761,0.499-9.579,1.98 c-1.579,0.829-2.462,1.391-3.211,2.355c-0.473,0.546-3.907,7.117-4.923,10.061l-0.348,1.204c0,0.483,5.948-2.976,6.422-2.89 c1.543,0.281,2.171-2.595,4.426-2.595c2,0,7,0,7,0s5,0,7,0c2.255,0,5.637,2.635,7.18,2.354c0.474-0.086,1.445-0.079,1.445-0.562 l1.07,0.883c0-0.723-2.564-6.289-3.759-8.475C36.128,7.676,35.606,7.081,33.519,6.037z"/><path fill="#b2b2bc" d="M23.727,6.332c-1.398,0-3.938,0.105-6.116,0.333c-0.505,0.053-0.884,0.486-0.884,0.994v3.673 c0,0.552,0.448,1,1,1h12c0.552,0,1-0.448,1-1V7.659c0-0.508-0.379-0.941-0.884-0.994C27.665,6.437,25.125,6.332,23.727,6.332z"/><circle cx="18.227" cy="10.832" r=".5" fill="#6c6c76"/><circle cx="18.227" cy="7.832" r=".5" fill="#6c6c76"/><circle cx="29.227" cy="10.832" r=".5" fill="#6c6c76"/><circle cx="29.227" cy="7.832" r=".5" fill="#6c6c76"/><path fill="#6c6c76" d="M26.348,7.711c-0.195-0.195-0.512-0.195-0.707,0L25.27,8.082c-0.322-0.297-0.837-0.625-1.543-0.625 c-1.069,0-1.936,0.844-1.99,1.9l-0.908,1.188c-0.247,0.322-0.017,0.787,0.389,0.787h2.384c0.903,0,1.375-0.566,1.375-1.125 c0-0.637-0.46-0.875-0.75-0.875c-0.276,0-0.5,0.224-0.5,0.5c0,0.079,0.022,0.151,0.055,0.218c0.01,0.021,0.025,0.037,0.038,0.056 c0.029,0.043,0.061,0.08,0.101,0.112c0.01,0.008,0.015,0.021,0.025,0.028c-0.049,0.04-0.156,0.086-0.344,0.086 c-0.548,0-0.875-0.327-0.875-0.875c0-0.551,0.449-1,1-1c0.695,0,1.076,0.594,1.089,0.616c0.08,0.132,0.215,0.219,0.368,0.238 c0.156,0.021,0.306-0.034,0.414-0.143l0.75-0.75C26.543,8.223,26.543,7.906,26.348,7.711z"/></g><path fill="#f48fb1" d="M6.601,36.165c0,0,4.067-13.164,8.134-15.733c4.299-2.715,9.579-2.408,9.579-2.408l0.161-7.117	l-7.971-2.505c-1.925-0.605-4.015,0.165-5.088,1.874L1.143,26.64l2.569-0.642l-1.07,6.529l3.318-2.462L6.601,36.165z"/><path fill="#f48fb1" d="M40.904,35.068c0,0-3.532-12.094-7.599-14.663c-4.299-2.715-9.579-2.408-9.579-2.408l-0.161-7.117	l8.637-2.715c1.532-0.481,3.196,0.131,4.05,1.491l10.645,16.956l-2.569-0.642l1.07,6.529l-3.318-2.462L40.904,35.068z"/><path fill="#f06292" d="M24,18c0,0,5.96-2.977,8.409-1.675c1.886,1.003,2.589,5.679,2.589,5.679s-1.172-1.448-4.014-2.749	C28.355,18.051,24.22,18.083,24,18z"/><path fill="#f06292" d="M24.014,18c0,0-5.96-2.977-8.409-1.675c-1.886,1.003-2.589,5.679-2.589,5.679	s1.172-1.448,4.014-2.749C19.659,18.051,23.794,18.083,24.014,18z"/><polygon fill="#f48fb1" points="34.997,22.004 34.977,26.954 38,24"/><polygon fill="#f48fb1" points="12.976,22.071 12.996,27.021 9.973,24.067"/></svg>